<?xml version="1.0" encoding="UTF-8"?><svg id="_層_2" xmlns="http://www.w3.org/2000/svg" viewBox="0 0 48.75 48.75"><defs><style>.cls-1{fill:#fff;}</style></defs><g id="_層_5"><g><path class="cls-1" d="M24.5,19.71c-2.57,0-4.66,2.09-4.66,4.66s2.09,4.66,4.66,4.66,4.66-2.09,4.66-4.66-2.09-4.66-4.66-4.66Z"/><path class="cls-1" d="M30.27,12.38h-11.8c-3.36,0-6.1,2.73-6.1,6.1v11.8c0,3.36,2.73,6.1,6.1,6.1h11.8c3.36,0,6.1-2.73,6.1-6.1v-11.8c0-3.36-2.73-6.1-6.1-6.1Zm-5.78,19.27c-4.01,0-7.28-3.26-7.28-7.28s3.26-7.28,7.28-7.28,7.28,3.26,7.28,7.28-3.26,7.28-7.28,7.28Zm7.7-13.31c-.96,0-1.73-.78-1.73-1.73s.78-1.73,1.73-1.73,1.73,.78,1.73,1.73-.78,1.73-1.73,1.73Z"/><path class="cls-1" d="M24.38,0C10.91,0,0,10.91,0,24.38s10.91,24.38,24.38,24.38,24.38-10.91,24.38-24.38S37.84,0,24.38,0Zm14.78,30.27c0,4.89-3.98,8.88-8.88,8.88h-11.8c-4.89,0-8.88-3.98-8.88-8.88v-11.8c0-4.89,3.98-8.88,8.88-8.88h11.8c4.89,0,8.88,3.98,8.88,8.88v11.8Z"/></g></g></svg>