<?xml version="1.0" encoding="UTF-8"?><svg id="_層_2" xmlns="http://www.w3.org/2000/svg" viewBox="0 0 30.48 34.88"><defs><style>.cls-1{fill:#e8aca7;}</style></defs><g id="_層_6"><path class="cls-1" d="M30.28,33.48l-8.43-9.91c2.94-2.45,4.81-6.13,4.81-10.24C26.66,5.98,20.68,0,13.33,0S0,5.98,0,13.33s5.98,13.33,13.33,13.33c2.63,0,5.08-.77,7.14-2.08l8.51,10.01c.16,.19,.4,.3,.65,.3,.2,0,.4-.07,.55-.2,.36-.3,.4-.84,.1-1.2ZM13.33,24.96c-6.41,0-11.63-5.22-11.63-11.63S6.91,1.7,13.33,1.7s11.63,5.22,11.63,11.63-5.22,11.63-11.63,11.63Z"/></g></svg>