<?xml version="1.0" encoding="UTF-8"?><svg id="_層_2" xmlns="http://www.w3.org/2000/svg" viewBox="0 0 48.75 48.75"><defs><style>.cls-1{fill:#fff;}</style></defs><g id="_層_5"><g><path class="cls-1" d="M29.91,24.17l-7.68-4.18c-.31-.18-1.39,.05-1.39,.41v8.15c0,.36,1.07,.59,1.38,.42l8.02-3.97c.33-.18-.01-.64-.33-.83Z"/><path class="cls-1" d="M24.38,0C10.91,0,0,10.91,0,24.38s10.91,24.38,24.38,24.38,24.38-10.91,24.38-24.38S37.84,0,24.38,0Zm16.39,28.54c0,3.86-3.13,6.99-6.99,6.99H15.89c-3.86,0-6.99-3.13-6.99-6.99v-8.32c0-3.86,3.13-6.99,6.99-6.99h17.89c3.86,0,6.99,3.13,6.99,6.99v8.32Z"/></g></g></svg>