<?xml version="1.0" encoding="UTF-8"?><svg id="_層_2" xmlns="http://www.w3.org/2000/svg" viewBox="0 0 43.8 37.91"><defs><style>.cls-1{fill:#e8aca7;}</style></defs><g id="_層_6"><g><path class="cls-1" d="M43.21,10.87H14.43L12.33,.47c-.06-.27-.3-.47-.58-.47H.59C.26,0,0,.26,0,.59s.26,.59,.59,.59H11.27l5.18,25.63v6.08c0,.32,.26,.59,.59,.59h15.58c.32,0,.59-.26,.59-.59s-.26-.59-.59-.59h-14.99v-4.96h16.03c.2,0,.39-.1,.5-.28l9.54-15.28c.11-.18,.12-.41,.02-.6-.1-.19-.3-.3-.51-.3Zm-10.29,4.85h-7.94v-3.67h7.94v3.67Zm0,5.88h-7.94v-4.7h7.94v4.7Zm-9.11-9.55v3.67H15.42l-.74-3.67h9.13Zm0,4.85v4.7h-6.88c-.11,0-.21,.04-.3,.09l-.97-4.8h8.15Zm-6.28,9.26l-.69-3.4s.05,.02,.08,.02h6.88v3.27s.01,.07,.02,.11h-6.3Zm7.45-.11v-3.27h7.94v3.38h-7.96s.02-.07,.02-.11Zm9.11-1.09v-2.18h1.36l-1.36,2.18Zm2.09-3.35h-2.09v-4.7h5.03l-2.94,4.7Zm3.66-5.86s-.05-.02-.08-.02h-5.67v-3.67h8.06l-2.3,3.69Z"/><circle class="cls-1" cx="17.83" cy="35.07" r="2.84"/><circle class="cls-1" cx="32.8" cy="35.07" r="2.84"/></g></g></svg>