<?xml version="1.0" encoding="UTF-8"?><svg id="logo" xmlns="http://www.w3.org/2000/svg" xmlns:xlink="http://www.w3.org/1999/xlink" viewBox="0 0 164.73 62.28"><defs><style>.cls-1{fill:#ffefee;}.cls-2{fill:#ffcfd5;}.cls-3{fill:url(#_命名漸層_203);}.cls-4{font-family:FZYTK--GBK1-0, FZYaoTi;font-size:31.05px;}.cls-4,.cls-5{fill:#80c3e4;}.cls-5{font-family:AvenirNextCondensed-Medium, 'Avenir Next Condensed';font-size:20.08px;}</style><linearGradient id="_命名漸層_203" x1="3.11" y1=".52" x2="47.57" y2="52.71" gradientTransform="matrix(1, 0, 0, 1, 0, 0)" gradientUnits="userSpaceOnUse"><stop offset="0" stop-color="#afd6eb"/><stop offset="1" stop-color="#2a8cb4"/></linearGradient></defs><circle class="cls-3" cx="29.5" cy="31.5" r="29.5"/><path class="cls-1" d="M51.11,35.27l-3.76-5.48c-.56-.82-1.6-1.23-2.58-1.12-1.19,.14-1.91,1.04-2.63,1.9l-4.6,5.44-2.7,3.19c-.8-.61-1.6-1.28-2.38-2.03-.4-.37-.81-.78-1.2-1.2-1.17-1.25-2.95-1.76-4.64-1.27-1,.3-1.85,.98-2.45,1.83-.28,.4-.43,.86-.44,1.33,0,.51,.15,1.02,.47,1.45,.21,.27,.51,.41,.81,.41,.33,0,.65-.14,.86-.44l.82-1.16c.36-.49,.85-.61,1.11-.62,.47-.02,.94,.15,1.26,.5,.31,.33,.64,.67,.96,.98,.94,.93,1.89,1.76,2.86,2.5l-3.72,4.4-.03,.04c-1.06,1.37-2.86,.78-3.81-.35-1.4-1.65-2.71-3.4-3.98-5.14L8.93,24.39c-.5-.64-1.45-.77-2.09-.27-.37,.29-.58,.73-.58,1.17,0,.33,.1,.66,.32,.93l2.92,3.76,5.75,7.41c2.18,2.81,4.36,5.62,6.54,8.42,.76,.97,1.45,2.1,2.45,2.85,.88,.66,1.97,1.03,3.07,1.05h.05c.35,0,.69-.02,1.02-.09,1-.18,1.92-.64,2.67-1.34,.15-.15,.29-.3,.42-.45l3.96-4.68c3.18,1.88,6.54,2.81,10.01,2.85,2.56,.01,4.89-1.38,6.1-3.65,1.2-2.26,1.04-4.98-.41-7.1Zm-2.24,5.7c-.68,1.3-1.97,2.07-3.44,2.06-2.84-.02-5.49-.93-8.05-2.17,.66-1.09,1.73-2.08,2.56-3.07l3.75-4.44c.19-.22,.36-.47,.58-.66,1.08-.9,1.77,.5,2.28,1.24,1.42,2.06,3.72,4.37,2.31,7.04Z"/><text class="cls-5" transform="translate(72.88 57.26)"><tspan x="0" y="0">FREE DIVING</tspan></text><text class="cls-4" transform="translate(67.59 33.69)"><tspan x="0" y="0">海青</tspan></text><circle class="cls-2" cx="10" cy="8.5" r="8.5"/></svg>