<?xml version="1.0" encoding="UTF-8"?><svg id="_層_2" xmlns="http://www.w3.org/2000/svg" viewBox="0 0 385 15"><defs><style>.cls-1{fill:#fff;}</style></defs><g id="_層_6"><path class="cls-1" d="M385,15c-7.94,0-11.91-3.22-15.75-6.33-3.6-2.91-6.99-5.67-13.87-5.67s-10.27,2.75-13.87,5.67c-3.84,3.11-7.82,6.33-15.75,6.33s-11.91-3.22-15.75-6.33c-3.6-2.91-6.99-5.67-13.86-5.67s-10.27,2.75-13.86,5.67c-3.84,3.11-7.82,6.33-15.75,6.33s-11.91-3.22-15.75-6.33c-3.6-2.91-6.99-5.67-13.86-5.67s-10.27,2.75-13.86,5.67c-3.84,3.11-7.82,6.33-15.75,6.33s-11.91-3.22-15.75-6.33c-3.59-2.91-6.99-5.67-13.86-5.67s-10.27,2.75-13.86,5.67c-3.84,3.11-7.82,6.33-15.75,6.33s-11.91-3.22-15.75-6.33c-3.59-2.91-6.99-5.67-13.86-5.67s-10.27,2.75-13.86,5.67c-3.84,3.11-7.82,6.33-15.75,6.33s-11.91-3.22-15.75-6.33c-3.59-2.91-6.99-5.67-13.86-5.67s-10.27,2.75-13.86,5.67c-3.84,3.11-7.82,6.33-15.75,6.33s-11.91-3.22-15.75-6.33C10.27,5.75,6.87,3,0,3V0C7.93,0,11.91,3.22,15.75,6.33c3.59,2.91,6.99,5.67,13.86,5.67s10.27-2.75,13.86-5.67c3.84-3.11,7.82-6.33,15.75-6.33s11.91,3.22,15.75,6.33c3.59,2.91,6.99,5.67,13.86,5.67s10.27-2.75,13.86-5.67c3.84-3.11,7.82-6.33,15.75-6.33s11.91,3.22,15.75,6.33c3.59,2.91,6.99,5.67,13.86,5.67s10.27-2.75,13.86-5.67c3.84-3.11,7.82-6.33,15.75-6.33s11.91,3.22,15.75,6.33c3.59,2.91,6.99,5.67,13.86,5.67s10.27-2.75,13.86-5.67c3.84-3.11,7.82-6.33,15.75-6.33s11.91,3.22,15.75,6.33c3.6,2.91,6.99,5.67,13.86,5.67s10.27-2.75,13.87-5.67c3.84-3.11,7.82-6.33,15.75-6.33s11.91,3.22,15.75,6.33c3.6,2.91,6.99,5.67,13.86,5.67s10.27-2.75,13.87-5.67c3.84-3.11,7.82-6.33,15.76-6.33s11.91,3.22,15.75,6.33c3.6,2.91,6.99,5.67,13.87,5.67v3Z"/></g></svg>